<?xml version="1.0" encoding="utf-8"?>
<!-- Generator: Adobe Illustrator 28.3.0, SVG Export Plug-In . SVG Version: 6.00 Build 0)  -->
<svg version="1.1" id="logo" xmlns="http://www.w3.org/2000/svg" xmlns:xlink="http://www.w3.org/1999/xlink" x="0px" y="0px"
	 viewBox="0 0 579.9 117.8" style="enable-background:new 0 0 579.9 117.8;" xml:space="preserve">
<style type="text/css">
	.st0{display:none;}
	.st1{display:inline;}
	.st2{display:inline;fill:#EA5504;}
	.st3{fill:#0B318F;}
	.st4{enable-background:new    ;}
	.st5{fill:#EA5504;}
</style>
<g class="st0">
	<g class="st1">
		<path d="M135.7,82.8c0,3.7,0.1,5.8,0.4,7.6h-7.2c0.3-1.8,0.4-3.9,0.4-7.7v-41c0-3.2-0.1-5-0.3-7c1.7,0.2,3.3,0.3,6.3,0.3h11.3
			c3.3,0,4.7-0.1,6.4-0.3c-0.1,1.8-0.2,3.6-0.2,5.8V50c0,2.8,0,4,0.1,5.6c-1.5-0.1-3.5-0.2-5.7-0.2h-11.5V82.8L135.7,82.8z
			 M135.7,42.9h11v-3.2h-11V42.9z M135.7,50.6h11v-3.3h-11V50.6z M146.2,69.2c0.1-2.2,0.1-2.9,0.1-5.8c-2.9,0-4.6,0.1-6.2,0.3v-5.5
			c1.7,0.2,3.4,0.3,6.3,0.3h18.1c3,0,4.7-0.1,6.5-0.3v5.5c-1.7-0.2-3.4-0.3-6.5-0.3v5.8h0.9c3.1,0,4.6-0.1,6.4-0.3v5.6
			c-1.8-0.2-3.4-0.3-6.4-0.3h-0.9v9.2c0,2.9,0.1,3.9,0.3,5.3h-6.5c0.3-1.5,0.3-2.6,0.3-5.3v-9.1h-7c-0.7,6.6-2.7,10.7-7.6,15.3
			c-1.5-1.7-2.8-2.8-4.9-4.3c4.2-3.2,5.9-6,6.7-11c-3.2,0-4.9,0.1-6.5,0.3V69c1.7,0.2,3.3,0.3,6.4,0.3h0.5V69.2z M152.1,63.4
			c0,2.8,0,2.8-0.2,5.8h6.6v-5.8C158.5,63.4,152.1,63.4,152.1,63.4z M181.6,82.7c0,5.5-1.8,7-8.9,7c-1,0-2,0-4-0.1
			c-0.3-2.8-0.7-4.1-1.7-6.6c2.3,0.3,4.3,0.5,5.7,0.5c2,0,2.4-0.3,2.4-1.6V55.4h-12.2c-2.2,0-4.1,0.1-5.7,0.1
			c0.1-1.8,0.2-2.8,0.2-5.6v-9.5c0-2.3-0.1-3.9-0.2-5.8c1.7,0.2,3.2,0.3,6.3,0.3h11.9c3.1,0,4.7-0.1,6.4-0.3
			c-0.2,2.3-0.3,3.8-0.3,6.9L181.6,82.7L181.6,82.7z M163.5,42.9H175v-3.2h-11.5V42.9z M163.5,50.6H175v-3.3h-11.5V50.6z"/>
		<path d="M192.1,83.2c4.1-5.9,6.2-10.7,7.4-17.3l6.4,1.5c-1.6,7.7-3.7,13.3-7.4,19.6L192.1,83.2z M217,38.8c0-2.6-0.1-3.9-0.4-5.6
			h7.7c-0.3,1.7-0.4,3.1-0.4,5.6v2h16.9c3.1,0,5.5-0.1,7.3-0.4v7c-2.2-0.2-4.5-0.3-7.3-0.3H224V55h13.8c3,0,4.8-0.1,6.6-0.3v6.7
			c-2-0.3-3.7-0.3-6.7-0.3h-33.6c-3,0-4.8,0.1-6.7,0.3v-6.7c1.8,0.3,3.6,0.3,6.7,0.3H217v-7.9h-15.9c-3,0-5.3,0.1-7.2,0.3v-7
			c1.8,0.3,4.1,0.4,7.2,0.4H217V38.8L217,38.8z M215.5,63.9c-0.3,1.5-0.3,2.9-0.3,5.9v11c0,2,0.6,2.2,6.8,2.2c6,0,7.4-0.2,8-1.1
			c0.6-0.8,0.8-2.3,1-7c2.2,1.3,3.5,1.7,6.7,2.2c-0.6,11.5-1.8,12.3-16.5,12.3c-10.5,0-12.6-1-12.6-6.3V69.8c0-2.6-0.1-4.1-0.3-5.9
			H215.5z M225.8,76.3c-2.5-3.7-5.3-6.8-9.5-10.3l4.8-3.8c4.2,3.4,6.5,5.8,9.6,9.7L225.8,76.3z M243.4,86.1
			c-2.5-7.2-5.3-12.9-8.5-17.6l5.8-2.7c2.9,4.1,6,9.8,9,16.8L243.4,86.1z"/>
		<path d="M265.6,43.5c-2.7,0-4.6,0.1-6.5,0.3v-6.3c1.8,0.3,3.6,0.4,6.7,0.4h17.1c0-2.1-0.1-3.3-0.4-4.8h7.3
			c-0.3,1.5-0.4,2.9-0.4,4.8h18.3c3.2,0,4.8-0.1,6.7-0.4v6.3c-1.9-0.2-3.8-0.3-6.5-0.3h-18.4v2.9h13.9c3,0,4.2-0.1,5.9-0.2
			c-0.2,1.8-0.3,2.9-0.3,5v12.2c0,2.1,0.1,3.1,0.3,4.9c-1.8-0.1-3-0.2-6.2-0.2V71h4.8c3.2,0,4.8-0.1,6.7-0.4v6.3
			c-2-0.2-4.3-0.3-6.5-0.3H303v8.1c0,2.3-0.5,3.5-2,4.4c-1.4,0.9-3.6,1.2-8.1,1.2c-0.9,0-2.2-0.1-4.3-0.1c-0.5-2.9-1-4.4-1.9-6.3
			c2.8,0.4,4.8,0.5,7,0.5c2.3,0,2.7-0.2,2.7-1.4v-6.3h-30.8c-2.2,0-4.5,0.1-6.5,0.3v-6.3c1.8,0.3,3.6,0.4,6.7,0.4h30.7V68h-26.3
			c-2.9,0-4.1,0.1-5.9,0.2c0.2-1.8,0.3-2.9,0.3-4.9V51.1c0-2-0.1-3.2-0.3-5c1.7,0.1,2.9,0.2,5.9,0.2H283v-2.9h-17.4V43.5z
			 M278.9,89.1c-3.5-4.2-5-5.6-8.7-8.2l5-4c4.1,2.7,6.3,4.7,8.9,7.7L278.9,89.1z M270.9,51.5v3.2h11.9v-3.2H270.9z M270.9,59.4v3.4
			h11.9v-3.4H270.9z M289.4,54.7h13v-3.2h-13V54.7z M289.4,62.9h13v-3.4h-13V62.9z"/>
		<path d="M333.1,82.7c0,3.7,0.1,5.9,0.4,7.7h-7.4c0.3-2,0.4-4.2,0.4-7.7V41.9c0-3.3-0.1-5-0.3-7c1.8,0.2,3.2,0.3,6.3,0.3h11
			c3.2,0,4.6-0.1,6.3-0.3c-0.1,1.7-0.2,3.4-0.2,5.8v12.1c0,2.9,0,4.2,0.1,5.6c-1.5-0.1-3.5-0.1-5.6-0.1h-11.2L333.1,82.7L333.1,82.7
			z M333.1,44.5h10.6v-3.9h-10.6V44.5L333.1,44.5z M333.1,53.2h10.6v-3.9h-10.6V53.2L333.1,53.2z M378.2,82.5c0,6-1.7,7.1-10.6,7.1
			c-1.1,0-2.6-0.1-5.1-0.1c-0.4-3-0.9-4.8-1.7-6.8c3.1,0.4,5.6,0.6,8.5,0.6c1.9,0,2.3-0.3,2.3-1.5V58.2h-11.7
			c-2.3,0-4.4,0.1-5.8,0.1c0.1-1.4,0.2-2.9,0.2-5.6v-12c0-2.2-0.1-3.9-0.2-5.8c1.8,0.2,3.1,0.3,6.3,0.3h11.7c3.1,0,4.5-0.1,6.3-0.3
			c-0.2,2.2-0.3,3.9-0.3,6.9L378.2,82.5L378.2,82.5z M360.5,44.5h11.1v-3.9h-11.1V44.5z M360.5,53.2h11.1v-3.9h-11.1V53.2z"/>
		<path d="M428.6,44.1c-1.4-0.1-1.4-0.1-2-0.1c-0.4,2.6-1,4.7-1.5,6.7h5c-0.1-4.3-0.1-4.3-0.2-12.6c0-2.5,0-3-0.2-4.5h6.5
			c-0.3,2.2-0.4,3.2-0.4,7.9c0,2.2,0.1,7.4,0.1,9.3h3.6c3.7,0,5-0.1,7-0.4v6.5c-2.3-0.3-3.3-0.3-7-0.3h-3.4
			c0.3,4.9,0.6,8.2,1.1,11.4c1.6-3.2,3.1-6.9,3.5-8.9l5.1,3.2c-0.4,0.8-0.9,1.8-1.4,3c-1.4,3.3-3.5,7.4-5.3,10.3
			c0.9,2.5,1.4,3.8,2.2,5.1c0.6,1,0.8,1.3,1,1.3c0.4,0,0.8-2.9,1-7.8c1.6,1.4,3.4,2.5,4.9,3.3c-0.5,4.8-1,7.2-1.8,9.1
			s-2.2,2.9-3.8,2.9c-2.7,0-5.6-3-7.8-8.1c-3.1,3.7-5.7,6-10,9.2c-1.6-2.5-2.2-3.2-3.9-4.8c2.2-1.5,3-2,4.3-3h-9.6v4.1H410
			c0.2-1.8,0.3-3.4,0.3-5.5V64.5c0-2.7,0-3.5-0.2-5.5c1.1,0.1,1.8,0.2,4,0.2h9.8c1.8,0,2.6-0.1,4.1-0.2c-0.2,1.5-0.2,2.3-0.2,5.6
			v13.3c0,2.1,0,2.1,0,2.7c1.8-1.7,3.2-3.3,4.9-5.5c-1.3-5.1-1.9-9.5-2.5-18.5h-23.1v27.5c0,3.2,0.1,4.8,0.3,6.6h-6.3
			c0.3-1.8,0.3-3.7,0.3-6.7v-4.7c-2.7,0.9-5.6,1.8-7.9,2.4c-2.9,0.8-3.1,0.8-4.2,1.3l-1.4-6.7c0.7,0,1.6-0.2,3.4-0.5V41.2
			c-1.3,0.1-1.9,0.1-2.8,0.3v-6.6c1.3,0.2,2.8,0.3,5.3,0.3h9.8c2.6,0,3.9-0.1,5.3-0.3v3.8c1.3,0.2,2.3,0.3,3.9,0.3h2.9v-0.4
			c0-2.5-0.1-3.6-0.4-5.1h6.7c-0.3,1.5-0.3,2.6-0.3,5.1V39h2.2c2.2,0,3.2-0.1,4.4-0.2L428.6,44.1L428.6,44.1z M397.1,48.5h4.3v-7.2
			h-4.3V48.5z M397.1,60.7h4.3V54h-4.3V60.7z M397.1,74.6c2.1-0.6,2.6-0.7,4.3-1.2v-7.2h-4.3V74.6z M412.4,50.7
			c-0.3-1.8-0.7-4.1-1.3-6.7c-1,0.1-1.2,0.1-2.2,0.2v-2.8c-0.9-0.1-1.1-0.1-1.8-0.1v9.5L412.4,50.7L412.4,50.7z M415.5,68.5h7v-4.1
			h-7V68.5z M415.5,77.7h7v-4.4h-7V77.7z M416.4,44c0.4,1.8,0.8,4.1,1.1,6.8h2.6c0.6-2,1-4.3,1.4-6.8H416.4z M441.5,36
			c2.3,3.4,3.3,5.4,5,9.5l-4.9,2.9c-1.4-4.5-2.3-6.5-4.6-9.9L441.5,36z"/>
		<path d="M487,55c1.6,5.6,4.8,11.6,8.9,16.2c4.6,5.3,9.8,8.8,17.2,11.9c-2.1,2.5-3,3.8-4.6,7.2c-6.7-3.4-11-6.7-15.4-11.4
			c-4.1-4.4-7.1-9.3-9.4-15.1c-1.9,6.4-5.1,11.8-10.2,16.7c-4.3,4.1-8.7,7.1-14.8,9.8c-1.1-2.3-2.4-4.3-4.4-6.5
			c4.4-1.8,6.9-3.1,10.1-5.3c8.3-5.8,12.5-12.8,14-23.4h-14.6c-3.9,0-5.8,0.1-7.9,0.4v-7.8c2,0.3,4.2,0.4,7.9,0.4h15.3
			c0.1-3.1,0.1-4.1,0.1-7.4c0-2.6-0.1-4.5-0.4-6.2h8.2c-0.3,2.2-0.4,3.1-0.4,7.4c0,2.5-0.1,4-0.1,6.3H503c3.5,0,5.7-0.1,7.8-0.4v7.8
			c-2.4-0.3-4.4-0.4-7.7-0.4H487V55z"/>
		<path d="M529,73.5c-3.2,0-5.6,0.1-7.6,0.4V67c2.1,0.3,4.6,0.4,7.5,0.4h16.9V67c0-1.2-0.1-2.3-0.2-3.4h2.7c2.7-1.4,4.8-2.8,7.4-5.1
			h-17.1c-2.5,0-4.3,0.1-6.2,0.3v-6.2c1.8,0.2,3.6,0.3,6.3,0.3h20.6c2.5,0,3.6-0.1,4.8-0.3l3.4,3.8c-1,0.8-1,0.8-2.2,1.8
			c-4.4,3.7-7.6,6.1-12.4,9.1v0.1h16.2c3.1,0,5.8-0.1,7.7-0.4v6.9c-1.8-0.3-4.4-0.4-7.7-0.4H553v10.9c0,2.2-0.2,3-0.8,3.9
			c-1.1,1.5-3.2,2-8.8,2c-0.8,0-2.9-0.1-6.2-0.2c-0.6-3.3-1-4.4-2-6.6c3,0.4,5.8,0.6,7.7,0.6c2.7,0,3.2-0.2,3.2-1.4v-9.2H529
			L529,73.5z M532.2,42.8c-1.4-2.7-2.3-4-4.6-7l6.2-1.8c2.2,2.7,3.6,4.9,5.6,8.9h6.5c-1-2.9-2-5.1-3.7-7.8l6.4-1.8
			c2.5,4.8,2.9,5.6,4.3,9.6h5.3c1.8-2.5,4-6.4,5.1-9.3l6.7,1.9c-1.5,2.7-3.2,5.5-4.7,7.4h2.8c4.3,0,5.4-0.1,7.7-0.3
			c-0.2,1.5-0.3,2.9-0.3,5.1v5.8c0,1.7,0.1,3.2,0.3,4.8H569v-9.6h-40.5v9.6h-6.8c0.3-1.5,0.3-2.9,0.3-4.8v-5.8
			c0-2.2-0.1-3.5-0.3-5.1c2.9,0.3,3.2,0.3,7.4,0.3C529.3,42.8,532.2,42.8,532.2,42.8z"/>
	</g>
	<path class="st2" d="M5,64c8.7-21.5,19.6-34.3,26.5-34.5c8.2-0.2,13,4.9,16.7,13.9s5.9,17,7.6,21.1s10.5,14.4,15.4,16.2
		c4.9,1.9,7.8,2,12.1-1.1s8-12.5,10.9-22.8s4.3-21.7,0.9-23.4c-3.3-1.8-9.3,0.7-16.6,5.3C71.4,43.1,59.3,55,44.3,72.2
		c0,0,19.3-26.8,34.1-37.5c15.8-11.5,26.3-6.6,29.2-4.4s7.3,7.1,4.6,20c-2.7,12.9-12.2,37-21.1,46.5c-3.8,4.1-9.3,7.2-16.1,6.2
		c-6.8-1-13.1-14.3-15.5-21.3s-1.9-8.8-4.5-14c-2.6-5.3-11.8-14.2-17.2-16.2s-9-0.6-11.4,3.2C24.1,58.5,17.1,70.1,15,83
		s0.2,15.3,6.7,14.4c11.6-1.5,35.8-27,47.3-40.7c0,0-14.3,21.2-28.2,33.6s-23.7,16.2-34.4,10.9C-7.2,94.5,5,64,5,64z"/>
	<g class="st1">
		<path class="st3" d="M24,106l-3.2,11.8h-2.5l3.2-11.8H24z M31.5,106l-5.7,5.7l2.9,6.1h-3.3l-2.7-6l5.7-5.8
			C28.4,106,31.5,106,31.5,106z"/>
		<path class="st3" d="M36.9,106h3.5l0.7,11.8h-2.7l-0.2-2.7H34l-1.6,2.7h-2.7L36.9,106z M38.3,112.8L38,108l-2.8,4.8H38.3z"/>
		<path class="st3" d="M48.9,106l-3.2,11.8h-2.6l3.2-11.8H48.9z"/>
		<path class="st3" d="M60.9,108.3h-6.3c-0.9,0-1.1,0.1-1.3,0.8l-0.2,0.7c-0.1,0.5,0,0.6,1.1,0.6h3.7c1.4,0,1.7,0,2.1,0.3
			c0.5,0.4,0.6,0.8,0.3,1.8l-0.7,2.6c-0.3,1-1,1.9-1.7,2.2c-0.7,0.3-1.3,0.4-2.9,0.4h-6.6l0.6-2.3h6c1.6,0,1.8-0.1,1.9-0.7l0.3-1.1
			c0.2-0.7-0.1-0.9-1.6-0.9h-3.4c-1.8,0-2.4-0.6-2-2l0.6-2.1c0.5-1.8,1.5-2.6,3.3-2.6h7.4L60.9,108.3z"/>
		<path class="st3" d="M66.5,106l-1.2,4.5h5l1.2-4.5h2.6l-3.2,11.8h-2.6l1.4-5h-5l-1.4,5h-2.5L64,106H66.5z"/>
		<path class="st3" d="M79.4,106l-3.2,11.8h-2.6l3.2-11.8H79.4z"/>
	</g>
	<g class="st1">
		<path d="M128.2,117.4v-15.5h2.8v15.5H128.2z M137.3,117.4l-6-8.2l6-7.4h3.4l-6.1,7.2l6.3,8.3C140.9,117.4,137.3,117.4,137.3,117.4
			z"/>
		<path d="M143.4,117.4l5.8-15.5h2.9l5.8,15.5h-3l-1.3-3.7h-6.1l-1.3,3.7H143.4z M148.3,111.4h4.5l-2.3-6.3L148.3,111.4z"/>
		<path d="M163,117.4v-15.5h2.8v15.5C165.9,117.4,163,117.4,163,117.4z"/>
		<path d="M172.3,114.5c1.1,0.4,2.5,0.8,3.9,0.8c1.9,0,2.6-0.8,2.6-1.8c0-1.1-0.3-1.6-2.3-2.5l-1.1-0.5c-2.4-1.1-3.2-2.4-3.2-4.2
			c0-2.6,1.9-4.5,5.4-4.5c1,0,2.3,0.2,3.4,0.5v2.6c-1.4-0.5-2.3-0.7-3.4-0.7c-1.7,0-2.6,0.6-2.6,1.7c0,0.9,0.3,1.4,1.9,2.2l1.1,0.5
			c2.5,1.2,3.6,2.3,3.6,4.3c0,3-2,4.9-5.7,4.9c-1.5,0-2.8-0.3-3.8-0.6v-2.7H172.3z"/>
		<path d="M187.7,117.4v-15.5h2.8v6.1h7.5v-6.1h2.8v15.5H198v-6.9h-7.5v6.9H187.7z"/>
		<path d="M208.1,117.4v-15.5h2.8v15.5C210.9,117.4,208.1,117.4,208.1,117.4z"/>
		<path d="M225.8,117.4v-15.5h5.1c3,0,5.1,1.7,5.1,4.7c0,3.2-2,5.4-5.4,5.4h-2.1v5.4C228.5,117.4,225.8,117.4,225.8,117.4z
			 M228.5,104.2v5.4h1.7c1.8,0,2.9-0.9,2.9-2.8c0-1.6-0.9-2.6-2.7-2.6H228.5z"/>
		<path d="M241.6,117.4v-15.5h5.4c3,0,4.8,1.4,4.8,4.1c0,2.4-1.3,3.8-3,4.4l4.7,7h-3.3l-3.9-6h-1.9v6H241.6z M244.3,104.3v4.9h1.5
			c1.8,0,3.1-0.8,3.1-2.6c0-1.5-1-2.3-2.6-2.3H244.3z"/>
		<path d="M257,109.9c0-5.1,2.9-8.1,7.3-8.1s7.3,2.4,7.3,7.9c0,5.1-2.9,8.2-7.3,8.2C259.9,117.8,257,115.4,257,109.9z M268.6,109.7
			c0-4.3-2.1-5.4-4.3-5.4c-2.2,0-4.3,1.3-4.3,5.6c0,4.3,2.1,5.4,4.3,5.4C266.5,115.3,268.6,114,268.6,109.7z"/>
		<path d="M277.8,117.4v-15.5h9.3v2.4h-6.5v4.6h5.6v2.4h-5.6v6.2C280.5,117.4,277.8,117.4,277.8,117.4z"/>
		<path d="M292.5,117.4v-15.5h9.3v2.4h-6.6v3.9h5.7v2.3h-5.7v4.5h6.8v2.5h-9.5V117.4z"/>
		<path d="M307.3,114.5c1.1,0.4,2.5,0.8,3.9,0.8c1.9,0,2.6-0.8,2.6-1.8c0-1.1-0.3-1.6-2.3-2.5l-1.1-0.5c-2.4-1.1-3.2-2.4-3.2-4.2
			c0-2.6,1.9-4.5,5.4-4.5c1,0,2.3,0.2,3.5,0.5v2.6c-1.4-0.5-2.3-0.7-3.5-0.7c-1.7,0-2.6,0.6-2.6,1.7c0,0.9,0.3,1.4,1.9,2.2l1.1,0.5
			c2.5,1.2,3.6,2.3,3.6,4.3c0,3-2,4.9-5.7,4.9c-1.5,0-2.8-0.3-3.8-0.6L307.3,114.5L307.3,114.5z"/>
		<path d="M321.9,114.5c1.1,0.4,2.5,0.8,3.9,0.8c1.9,0,2.6-0.8,2.6-1.8c0-1.1-0.3-1.6-2.3-2.5l-1.1-0.5c-2.4-1.1-3.2-2.4-3.2-4.2
			c0-2.6,1.9-4.5,5.4-4.5c1,0,2.3,0.2,3.5,0.5v2.6c-1.4-0.5-2.3-0.7-3.5-0.7c-1.7,0-2.6,0.6-2.6,1.7c0,0.9,0.3,1.4,1.9,2.2l1.1,0.5
			c2.5,1.2,3.6,2.3,3.6,4.3c0,3-2,4.9-5.7,4.9c-1.5,0-2.8-0.3-3.8-0.6L321.9,114.5L321.9,114.5z"/>
		<path d="M337.4,117.4v-15.5h2.8v15.5C340.2,117.4,337.4,117.4,337.4,117.4z"/>
		<path d="M346.5,109.9c0-5.1,2.9-8.1,7.3-8.1s7.3,2.4,7.3,7.9c0,5.1-2.9,8.2-7.3,8.2C349.5,117.8,346.5,115.4,346.5,109.9z
			 M358.1,109.7c0-4.3-2.1-5.4-4.3-5.4c-2.2,0-4.3,1.3-4.3,5.6c0,4.3,2.1,5.4,4.3,5.4C356,115.3,358.1,114,358.1,109.7z"/>
		<path d="M366.9,117.4v-15.5h3.2l7.1,10.4v-10.4h2.7v15.5h-2.4l-7.9-11.5v11.5C369.5,117.4,366.9,117.4,366.9,117.4z"/>
		<path d="M384.4,117.4l5.8-15.5h2.9l5.8,15.5h-3l-1.3-3.7h-6.1l-1.3,3.7H384.4z M389.4,111.4h4.5l-2.3-6.3L389.4,111.4z"/>
		<path d="M404.1,117.4v-15.5h2.8v13h7v2.5H404.1z"/>
		<path d="M436.3,101.9h2.8v9.7c0,4-3,6.1-6.4,6.1c-3.7,0-6.2-2.1-6.2-6.1v-9.7h2.8v9.1c0,2.6,1,4.3,3.7,4.3c2.3,0,3.5-1.4,3.5-4.3
			L436.3,101.9L436.3,101.9z"/>
		<path d="M445.5,117.4v-15.5h3.2l7.1,10.4v-10.4h2.7v15.5H456l-7.9-11.5v11.5H445.5z"/>
		<path d="M465.4,117.4v-15.5h2.8v15.5C468.2,117.4,465.4,117.4,465.4,117.4z"/>
		<path d="M478.9,117.4l-5.1-15.5h3l3.9,12.3l4-12.3h2.9l-5.2,15.5H478.9z"/>
		<path d="M492.8,117.4v-15.5h9.3v2.4h-6.6v3.9h5.7v2.3h-5.7v4.5h6.8v2.5h-9.5V117.4z"/>
		<path d="M508.5,117.4v-15.5h5.4c3,0,4.8,1.4,4.8,4.1c0,2.4-1.3,3.8-3,4.4l4.7,7h-3.3l-3.9-6h-1.9v6H508.5z M511.2,104.3v4.9h1.5
			c1.8,0,3.1-0.8,3.1-2.6c0-1.5-1-2.3-2.6-2.3H511.2z"/>
		<path d="M524.2,114.5c1.1,0.4,2.5,0.8,3.9,0.8c1.9,0,2.6-0.8,2.6-1.8c0-1.1-0.3-1.6-2.3-2.5l-1.1-0.5c-2.4-1.1-3.2-2.4-3.2-4.2
			c0-2.6,1.9-4.5,5.4-4.5c1,0,2.3,0.2,3.5,0.5v2.6c-1.4-0.5-2.3-0.7-3.5-0.7c-1.7,0-2.6,0.6-2.6,1.7c0,0.9,0.3,1.4,1.9,2.2l1.1,0.5
			c2.5,1.2,3.6,2.3,3.6,4.3c0,3-2,4.9-5.7,4.9c-1.5,0-2.8-0.3-3.8-0.6L524.2,114.5L524.2,114.5z"/>
		<path d="M539.7,117.4v-15.5h2.8v15.5H539.7z"/>
		<path d="M553,117.4v-13.2h-5v-2.4h12.7v2.4h-5v13.2C555.8,117.4,553,117.4,553,117.4z"/>
		<path d="M568.8,117.4v-6l-5-9.5h3.1l3.5,7l3.5-7h2.9l-5.1,9.5v6.1C571.5,117.4,568.8,117.4,568.8,117.4z"/>
	</g>
</g>
<g>
	<g class="st4">
		<path d="M5.48,16.03c0,0.92,0.41,1.23,1.33,1.33c0.62,0.1,1.54,0.1,2.46,0.1c1.95,0,4.82-0.21,6.26-0.62v1.64
			c-1.64,0.21-4.41,0.41-6.36,0.41c-1.13,0-2.15-0.1-2.97-0.21c-1.44-0.31-2.26-0.92-2.26-2.36V6.29c0-0.41,0-1.03-0.1-1.54h1.74
			c-0.1,0.41-0.1,1.03-0.1,1.54v4.21c2.15-0.51,5.13-1.44,6.98-2.26c0.62-0.21,1.13-0.51,1.64-0.82l0.62,1.44
			c-0.51,0.21-1.23,0.51-1.74,0.72c-2.05,0.82-5.23,1.85-7.59,2.36v4.1H5.48z M14.41,7.11C14,6.39,13.38,5.26,12.87,4.54l1.03-0.41
			c0.41,0.62,1.13,1.74,1.54,2.46L14.41,7.11z M15.84,3.41c0.51,0.72,1.23,1.85,1.54,2.46l-1.03,0.41
			c-0.41-0.82-1.03-1.85-1.54-2.56L15.84,3.41z"/>
	</g>
	<g class="st4">
		<path d="M25.69,11.21l-0.82,1.33c-0.92-0.62-2.87-1.95-4-2.56l0.82-1.23C22.72,9.26,24.87,10.59,25.69,11.21z M27.85,15.62
			c3.08-1.74,5.54-4.21,6.98-6.77l0.92,1.54c-1.64,2.46-4.1,4.82-7.08,6.57c-1.85,1.13-4.41,1.95-6.05,2.26l-0.82-1.54
			C23.74,17.36,26,16.65,27.85,15.62z M28.46,7.21l-0.82,1.23c-0.92-0.72-2.87-2.05-4-2.67l0.82-1.23
			C25.49,5.16,27.64,6.59,28.46,7.21z M34,7.72l-1.03,0.51c-0.41-1.03-1.03-2.05-1.64-2.87l1.03-0.41C32.77,5.46,33.59,6.8,34,7.72z
			 M36.46,6.8l-1.03,0.51c-0.51-1.03-1.13-2.05-1.74-2.87l1.03-0.41C35.23,4.64,36.05,5.98,36.46,6.8z"/>
	</g>
	<g class="st4">
		<path d="M53.19,7.41c-0.31,0.31-0.72,0.82-1.03,1.13c-0.92,1.13-2.46,2.67-4.21,3.8c0,1.54,0,3.69,0,4.92
			c0,0.62,0.1,1.44,0.1,2.05h-1.64c0.1-0.51,0.1-1.33,0.1-2.05c0-1.03,0-2.77,0-4c-1.74,1.03-3.69,1.85-6.26,2.56l-0.82-1.33
			c3.49-0.82,5.74-2.05,7.49-3.18c1.64-1.03,3.08-2.46,3.69-3.39h-7.69c-0.62,0-1.74,0-2.26,0.1V6.59c0.62,0.1,1.64,0.1,2.26,0.1
			h3.59V5.46c0-0.51,0-1.23-0.1-1.64h1.74c-0.1,0.41-0.1,1.13-0.1,1.64V6.7h3.08c0.41,0,0.82,0,1.13-0.1L53.19,7.41z M50.62,12.24
			c1.74,0.92,2.77,1.54,4.41,2.67l-0.92,1.23c-1.64-1.23-2.67-1.95-4.41-2.87L50.62,12.24z"/>
	</g>
	<g class="st4">
		<path d="M70.52,6.29c-0.1,0.1-0.31,0.51-0.41,0.82c-0.62,1.54-1.74,3.69-3.08,5.44c1.95,1.64,4.21,4.1,5.33,5.54l-1.33,1.13
			c-1.23-1.64-3.18-3.8-5.03-5.44c-1.95,2.15-4.41,4.1-7.18,5.33l-1.23-1.23c2.97-1.13,5.74-3.39,7.59-5.44
			c1.23-1.44,2.56-3.59,3.08-5.13h-7.18c-0.62,0-1.64,0.1-1.85,0.1V5.57c0.31,0,1.33,0.1,1.85,0.1h7.08c0.62,0,1.13-0.1,1.33-0.21
			L70.52,6.29z"/>
	</g>
	<g class="st4">
		<path d="M78.52,9.67c1.13,0,1.95,0.82,1.95,1.95s-0.82,1.95-1.95,1.95c-1.13,0-1.95-0.82-1.95-1.95S77.5,9.67,78.52,9.67z"/>
	</g>
	<g class="st4">
		<path d="M89.81,17.67c1.03,0.41,2.46,0.51,4.1,0.51c0.92,0,6.46,0,7.59,0c-0.21,0.31-0.41,0.92-0.51,1.33h-6.98
			c-3.9,0-6.05-0.62-7.39-3.08c-0.21,1.44-0.62,2.67-1.13,3.69c-0.21-0.21-0.82-0.51-1.13-0.62c1.03-1.85,1.23-4.82,1.33-8l1.33,0.1
			c0,0.92-0.1,1.74-0.1,2.56c0.41,1.33,1.03,2.26,1.74,2.87V9.98h-3.9V8.75h3.49V6.49h-3.08V5.26h3.08V3.21h1.33v2.05h2.97v1.23
			H89.6v2.36h3.49v1.23h-3.18v2.77h2.87v1.23h-2.97V17.67z M99.04,5.26h-5.33V4.03h6.67v6.77h-1.33v-0.41h-3.9v4.82
			c0,0.62,0.1,0.72,1.03,0.72h2.97c0.82,0,0.92-0.41,1.03-2.56c0.31,0.21,0.82,0.41,1.23,0.51c-0.21,2.56-0.62,3.28-2.15,3.28h-3.18
			c-1.74,0-2.26-0.41-2.26-1.95V9.16h5.23V5.26z"/>
	</g>
	<g class="st4">
		<path d="M115.15,15.62c1.64,1.33,4.21,2.46,6.57,2.87c-0.31,0.31-0.72,0.82-0.92,1.23c-2.46-0.72-5.13-2.05-6.98-3.8v4h-1.33v-3.9
			c-1.74,1.64-4.41,2.97-6.87,3.59c-0.21-0.31-0.62-0.82-0.92-1.13c2.26-0.51,4.82-1.64,6.46-2.87h-6.05v-1.13h7.28v-1.33h-5.54
			v-1.03h5.54V10.8h-6.46V9.57h4c-0.21-0.51-0.51-1.33-0.92-1.85l0.62-0.1h-4.51V6.39h2.97c-0.31-0.72-0.92-1.85-1.44-2.67
			l1.13-0.41c0.62,0.82,1.33,1.95,1.54,2.67l-0.92,0.31h2.26V3.21h1.23v3.28h2.15V3.21h1.33v3.28h2.26l-0.72-0.21
			c0.51-0.82,1.03-1.95,1.44-2.77l1.44,0.41c-0.51,0.92-1.13,1.95-1.64,2.67h2.87v1.23h-3.69c-0.41,0.72-0.82,1.44-1.13,1.95h4.21
			v1.13h-6.67v1.33h5.74v1.03h-5.74v1.33h7.39v1.13h-5.95V15.62z M110.53,7.62c0.41,0.62,0.82,1.33,0.92,1.85l-0.62,0.1h4.31
			l-0.21-0.1c0.31-0.51,0.72-1.33,0.92-1.95h-5.33V7.62z"/>
	</g>
	<g class="st4">
		<path d="M127.66,9.67c1.13,0,1.95,0.82,1.95,1.95s-0.82,1.95-1.95,1.95s-1.95-0.82-1.95-1.95S126.53,9.67,127.66,9.67z"/>
	</g>
	<g class="st4">
		<path d="M135.66,5.05h1.74V18.6h-1.74V5.05z"/>
	</g>
	<g class="st4">
		<path d="M141.61,13.57c0-3.39,2.15-5.23,4.62-5.23s4.62,1.95,4.62,5.23s-2.15,5.23-4.62,5.23S141.61,16.95,141.61,13.57z
			 M149.2,13.57c0-2.26-1.23-3.9-2.87-3.9s-2.87,1.54-2.87,3.9c0,2.26,1.13,3.8,2.87,3.8S149.2,15.93,149.2,13.57z"/>
	</g>
	<g class="st4">
		<path d="M156.69,6.49h-4.1V5.05h9.95v1.44h-4.1V18.6h-1.74V6.49z"/>
	</g>
	<g class="st4">
		<path d="M167.26,9.67c1.13,0,1.95,0.82,1.95,1.95s-0.82,1.95-1.95,1.95c-1.13,0-1.95-0.82-1.95-1.95S166.13,9.67,167.26,9.67z"/>
	</g>
	<g class="st4">
		<path d="M186.85,9.88c0.41,0,1.03,0,1.44-0.1v1.54c-0.41,0-1.03,0-1.44,0h-5.03c-0.1,1.95-0.31,3.69-1.13,5.03
			c-0.62,1.23-2.05,2.56-3.59,3.39l-1.33-1.03c1.44-0.62,2.77-1.64,3.49-2.77c0.82-1.33,1.03-2.87,1.03-4.62h-5.54
			c-0.62,0-1.13,0-1.64,0V9.77c0.51,0,1.03,0.1,1.64,0.1C174.75,9.88,186.85,9.88,186.85,9.88z M177,6.59c-0.62,0-1.23,0-1.74,0.1
			V5.16c0.51,0.1,1.13,0.1,1.64,0.1h6.36c0.51,0,1.23,0,1.74-0.1V6.7c-0.51,0-1.23-0.1-1.74-0.1H177z M186.55,6.59
			c-0.41-0.72-1.03-1.85-1.54-2.56l1.03-0.41c0.41,0.62,1.13,1.74,1.54,2.56L186.55,6.59z M188.08,2.9
			c0.51,0.62,1.23,1.85,1.54,2.46l-1.03,0.41c-0.41-0.72-0.92-1.74-1.44-2.46L188.08,2.9z"/>
	</g>
	<g class="st4">
		<path d="M193.11,10.59c0.51,0,1.54,0.1,2.56,0.1h10.05c0.92,0,1.54-0.1,1.95-0.1v1.85c-0.41,0-1.13-0.1-1.95-0.1h-10.16
			c-1.03,0-1.95,0-2.56,0.1v-1.85H193.11z"/>
	</g>
	<g class="st4">
		<path d="M226.04,6.8c-0.1,0.31-0.31,0.72-0.41,1.03c-0.41,1.64-1.44,3.69-2.67,5.44c0.72,0.41,1.33,0.82,1.74,1.23l-1.03,1.33
			c-0.41-0.31-1.03-0.82-1.74-1.23c-1.64,1.95-4,3.69-7.18,4.92l-1.33-1.13c3.18-1.03,5.64-2.77,7.28-4.62
			c-1.44-0.92-2.97-1.85-4-2.46l0.92-1.13c1.03,0.51,2.67,1.44,4.1,2.26c1.13-1.54,2.05-3.49,2.36-4.92h-6.26
			c-1.23,1.64-2.87,3.49-4.92,4.82l-1.23-0.92c3.18-1.95,5.13-4.72,5.95-6.36c0.21-0.31,0.41-1.03,0.62-1.44l1.64,0.51
			c-0.31,0.51-0.62,1.13-0.82,1.44c-0.1,0.21-0.21,0.41-0.41,0.72h5.03c0.51,0,0.92-0.1,1.23-0.21L226.04,6.8z"/>
	</g>
	<g class="st4">
		<path d="M244.71,8.03c0.82,0,1.44-0.1,1.64-0.1v1.54c-0.21,0-0.82-0.1-1.64-0.1h-2.05v0.62c0,4.92-1.03,7.49-5.23,9.34l-1.23-1.13
			c3.39-1.33,5.03-2.87,5.03-8V9.47h-5.23v2.97c0,0.72,0.1,1.54,0.1,1.64h-1.74c0-0.21,0.1-1.03,0.1-1.64V9.47h-1.95
			c-0.82,0-1.64,0.1-1.85,0.1V7.93c0.21,0,1.03,0.1,1.85,0.1h1.95V5.67c0-0.62-0.1-1.13-0.1-1.33h1.64c0,0.21-0.1,0.72-0.1,1.33
			v2.36h5.23V5.77c0-0.72-0.1-1.33-0.1-1.54h1.64c0,0.21-0.1,0.82-0.1,1.54v2.26C242.56,8.03,244.71,8.03,244.71,8.03z"/>
	</g>
	<g class="st4">
		<path d="M263.69,5.26c-1.23,1.33-3.08,2.77-4.92,4v7.9c0,0.72,0,1.64,0.1,1.95h-1.85c0.1-0.31,0.1-1.23,0.1-1.95v-6.98
			c-1.95,1.13-4.51,2.15-6.98,2.87l-0.82-1.44c3.08-0.72,6.26-2.15,8.21-3.39c1.85-1.13,3.8-2.77,4.82-4.1L263.69,5.26z"/>
	</g>
	<g class="st4">
		<path d="M281.64,16.34c0.51,0,1.03-0.1,1.54-0.1v1.64c-0.51-0.1-1.13-0.1-1.54-0.1h-12.21c-0.51,0-1.03,0-1.64,0.1v-1.64
			c0.51,0.1,1.13,0.1,1.64,0.1h5.23V7.82h-4.1c-0.31,0-1.13,0-1.54,0.1V6.29c0.51,0.1,1.23,0.1,1.54,0.1h10.16
			c0.51,0,1.13-0.1,1.54-0.1v1.64c-0.41-0.1-1.03-0.1-1.54-0.1h-4.41v8.51H281.64z"/>
	</g>
	<g class="st4">
		<path d="M294.57,14.8c2.87-1.74,5.13-4.51,6.16-6.77l0.92,1.54c-1.23,2.26-3.39,4.82-6.16,6.57c-1.85,1.23-4.21,2.26-7.28,2.87
			l-1.03-1.54C290.46,16.95,292.82,15.83,294.57,14.8z M293.44,8.95l-1.13,1.13c-0.92-0.92-3.18-2.97-4.62-3.9l1.03-1.13
			C290.05,5.98,292.41,7.82,293.44,8.95z"/>
	</g>
	<g class="st4">
		<path d="M317.65,6.29c-0.1,0.1-0.31,0.51-0.41,0.82c-0.62,1.54-1.74,3.69-3.08,5.44c1.95,1.64,4.21,4.1,5.33,5.54l-1.33,1.13
			c-1.23-1.64-3.18-3.8-5.03-5.44c-1.95,2.15-4.51,4.1-7.18,5.33l-1.23-1.23c2.97-1.13,5.74-3.39,7.59-5.44
			c1.23-1.44,2.56-3.59,3.08-5.13h-7.18c-0.62,0-1.64,0.1-1.85,0.1V5.57c0.31,0,1.33,0.1,1.85,0.1h7.08c0.62,0,1.13-0.1,1.33-0.21
			L317.65,6.29z"/>
	</g>
	<g class="st4">
		<path d="M326.06,9.67c1.13,0,1.95,0.82,1.95,1.95s-0.82,1.95-1.95,1.95s-1.95-0.82-1.95-1.95S324.93,9.67,326.06,9.67z"/>
	</g>
	<g class="st4">
		<path d="M349.55,6.18c-0.1,0.21-0.41,0.41-0.51,0.62c-0.72,1.23-2.46,3.59-4.62,5.13l-1.23-1.03c1.74-1.03,3.39-2.97,4-4.1h-10.46
			c-0.72,0-1.33,0-2.05,0.1V5.26c0.62,0.1,1.44,0.1,2.05,0.1h10.57c0.31,0,1.03-0.1,1.33-0.1L349.55,6.18z M342.17,8.54
			c0,5.03-0.41,8.41-5.13,10.67l-1.33-1.13c0.51-0.21,1.13-0.41,1.64-0.82c2.87-1.74,3.28-4.41,3.28-7.49c0-0.41,0-0.82-0.1-1.33
			h1.64V8.54z"/>
	</g>
	<g class="st4">
		<path d="M352.84,15.72c0.62,0.1,1.23,0.1,1.95,0.1h11.08c0.51,0,1.13,0,1.64-0.1v1.74c-0.51-0.1-1.23-0.1-1.64-0.1h-11.08
			c-0.62,0-1.33,0.1-1.95,0.1V15.72z M354.48,6.59c0.62,0.1,1.23,0.1,1.85,0.1h7.9c0.62,0,1.33,0,1.85-0.1v1.64
			c-0.51,0-1.23-0.1-1.85-0.1h-7.9c-0.62,0-1.23,0-1.85,0.1V6.59z"/>
	</g>
	<g class="st4">
		<path d="M384.33,5.16c-0.21,0.31-0.41,0.92-0.62,1.33c-0.62,1.64-1.54,3.69-2.77,5.44c1.64,1.33,3.18,2.77,4.51,4.21l-1.13,1.33
			c-1.33-1.54-2.77-2.87-4.31-4.21c-1.74,2.05-4,4.31-7.18,5.95l-1.33-1.13c3.18-1.54,5.54-3.59,7.28-5.74
			c-1.33-1.13-3.39-2.67-5.13-3.69l1.03-1.13c1.54,1.03,3.69,2.46,5.13,3.59c1.23-1.74,1.95-3.49,2.46-5.03
			c0.1-0.41,0.31-0.92,0.41-1.33L384.33,5.16z"/>
	</g>
	<g class="st4">
		<path d="M392.95,9.67c1.13,0,1.95,0.82,1.95,1.95s-0.82,1.95-1.95,1.95S391,12.75,391,11.62S391.82,9.67,392.95,9.67z"/>
	</g>
	<g class="st4">
		<path d="M417.57,6.9c-0.21,0.21-0.31,0.41-0.41,0.62c-1.33,2.15-3.69,5.13-6.67,7.49c1.13,1.13,2.46,2.46,3.18,3.39l-1.33,1.03
			c-0.72-0.92-2.15-2.56-3.28-3.8c-1.13-1.13-3.28-2.97-4.21-3.59l1.23-0.92c0.72,0.51,2.15,1.74,3.49,2.87
			c2.67-2.05,4.82-4.72,5.74-6.36h-10.87c-0.72,0-1.54,0.1-1.85,0.1V5.98c0.51,0.1,1.23,0.1,1.85,0.1h10.98
			c0.51,0,0.92-0.1,1.23-0.1L417.57,6.9z"/>
	</g>
	<g class="st4">
		<path d="M429.06,14.8c2.87-1.74,5.13-4.51,6.16-6.77l0.92,1.54c-1.23,2.26-3.39,4.82-6.16,6.57c-1.85,1.23-4.21,2.26-7.28,2.87
			l-1.03-1.54C424.95,16.95,427.31,15.83,429.06,14.8z M428.03,8.95l-1.13,1.13c-0.92-0.92-3.18-2.97-4.62-3.9l1.03-1.13
			C424.65,5.98,427,7.82,428.03,8.95z"/>
	</g>
	<g class="st4">
		<path d="M452.45,7.72c0.51,0,0.82,0,1.23-0.1l1.03,0.51c-0.1,0.31-0.1,0.62-0.1,0.92c-0.1,1.74-0.31,7.18-1.13,8.92
			c-0.41,0.82-0.92,1.13-1.95,1.13c-0.92,0-2.05-0.1-2.97-0.1l-0.21-1.54c1.03,0.1,1.95,0.21,2.77,0.21c0.51,0,0.82-0.1,1.03-0.62
			c0.72-1.44,0.92-5.95,0.92-7.9h-5.13c-0.62,5.33-2.56,8.1-5.64,10.26l-1.33-1.13c0.62-0.31,1.33-0.82,1.85-1.33
			c1.85-1.64,3.18-4,3.69-7.8h-3.08c-0.72,0-1.44,0-2.15,0.1V7.62c0.62,0.1,1.44,0.1,2.15,0.1h3.28c0-0.62,0.1-1.23,0.1-1.85
			c0-0.41-0.1-1.13-0.1-1.54h1.74c-0.1,0.41-0.1,1.03-0.1,1.54c0,0.62-0.1,1.33-0.1,1.85C448.24,7.72,452.45,7.72,452.45,7.72z
			 M453.16,4.13c0.41,0.62,1.13,1.74,1.54,2.56l-1.03,0.41c-0.41-0.72-1.03-1.85-1.54-2.56L453.16,4.13z M455.22,3.41
			c0.51,0.72,1.23,1.85,1.54,2.46l-1.03,0.41c-0.41-0.82-1.03-1.85-1.54-2.56L455.22,3.41z"/>
	</g>
	<g class="st4">
		<path d="M466.71,17.67c0.62,0,1.13-0.1,1.54-0.21c2.36-0.51,4.62-2.26,4.62-5.44c0-2.77-1.74-5.03-4.82-5.33
			c-0.21,1.74-0.62,3.59-1.13,5.23c-1.13,3.69-2.56,5.64-4.31,5.64c-1.64,0-3.28-1.85-3.28-4.92c0-4,3.59-7.39,8-7.39
			c4.31,0,6.98,2.97,6.98,6.67c0,3.8-2.56,6.36-6.87,6.98L466.71,17.67z M465.58,11.72c0.41-1.54,0.82-3.28,1.03-4.92
			c-3.49,0.41-5.64,3.49-5.64,5.95c0,2.26,1.03,3.28,1.85,3.28C463.53,16.03,464.55,14.8,465.58,11.72z"/>
	</g>
	<g class="st4">
		<path d="M488.56,5.98c0.21,0,0.41,0,0.62,0c-0.1-0.21-0.1-0.41-0.1-0.62c0-1.13,0.92-2.05,2.05-2.05s2.05,0.92,2.05,2.05
			s-0.92,2.05-2.05,2.05c-0.21,0-0.51,0-0.72-0.1v0.21c-0.41,1.95-1.33,4.92-2.77,6.77c-1.74,2.15-3.9,3.9-7.28,4.92l-1.23-1.33
			c3.59-0.92,5.64-2.46,7.18-4.41c1.33-1.64,2.15-4.21,2.46-6.05h-9.44c-0.72,0-1.33,0-1.85,0.1V5.87c0.51,0.1,1.23,0.1,1.85,0.1
			H488.56z M492.35,5.36c0-0.62-0.51-1.23-1.23-1.23s-1.23,0.62-1.23,1.23s0.51,1.23,1.23,1.23S492.35,6.08,492.35,5.36z"/>
	</g>
	<g class="st4">
		<path d="M511.54,16.54c0,0.62,0,2.05,0,2.26H510c0-0.1,0-0.51,0-1.03h-10.05c0,0.51,0,0.92,0,1.03h-1.54c0-0.21,0.1-1.54,0.1-2.26
			V7.41c0-0.41,0-1.03,0-1.44c0.72,0,1.23,0,1.64,0h9.95c0.41,0,1.03,0,1.64,0c0,0.51,0,1.03,0,1.44v9.13H511.54z M499.94,7.52v8.72
			H510V7.52H499.94z"/>
	</g>
	<g class="st4">
		<path d="M519.74,4.75c-0.1,0.31-0.31,0.92-0.31,1.23c-0.31,1.64-0.92,4.92-0.92,6.98c0,0.92,0,1.64,0.1,2.46
			c0.31-0.82,0.72-1.95,1.03-2.67l0.82,0.62c-0.41,1.33-1.13,3.18-1.33,4.1c-0.1,0.31-0.1,0.62-0.1,0.82l0.1,0.62l-1.33,0.1
			c-0.41-1.33-0.62-3.39-0.62-5.85c0-2.67,0.62-5.85,0.82-7.28c0.1-0.41,0.1-0.92,0.1-1.33L519.74,4.75z M523.85,13.67
			c-0.21,0.62-0.21,1.23-0.21,1.64c0,0.82,0.51,1.64,3.08,1.64c1.64,0,3.08-0.1,4.51-0.51v1.54c-1.13,0.21-2.67,0.41-4.51,0.41
			c-3.08,0-4.41-1.03-4.41-2.77c0-0.62,0.1-1.33,0.31-2.15L523.85,13.67z M523.13,6.18c1.95,0.31,5.64,0.31,7.49,0v1.54
			c-1.95,0.21-5.54,0.21-7.49,0V6.18z"/>
	</g>
	<g class="st4">
		<path d="M544.46,7.52c-0.92,0.31-2.05,0.51-3.28,0.62c-0.92,2.56-2.56,5.74-4,7.69l-1.44-0.72c1.54-1.74,3.08-4.72,3.9-6.77
			c-0.51,0-1.03,0.1-1.64,0.1c-0.72,0-1.44,0-2.15-0.1L535.75,7c0.72,0.1,1.54,0.1,2.26,0.1c0.62,0,1.33,0,2.05-0.1
			c0.31-1.03,0.51-2.15,0.62-3.18l1.64,0.1c-0.21,0.62-0.41,1.74-0.72,2.77c0.92-0.1,1.95-0.41,2.87-0.62L544.46,7.52z M546.62,9.67
			c-0.1,0.72,0,1.33,0,1.95s0.1,1.85,0.1,2.97c1.54,0.62,2.87,1.44,3.8,2.26l-0.82,1.23c-0.82-0.72-1.74-1.54-2.97-2.05
			c0,0.31,0,0.51,0,0.72c0,1.44-0.92,2.67-3.18,2.67c-2.05,0-3.69-0.82-3.69-2.67c0-1.64,1.54-2.77,3.69-2.77
			c0.62,0,1.23,0.1,1.74,0.21c-0.1-1.54-0.1-3.28-0.21-4.51C545.08,9.67,546.62,9.67,546.62,9.67z M545.29,15.52
			c-0.62-0.21-1.23-0.31-1.85-0.31c-1.33,0-2.26,0.62-2.26,1.44c0,0.82,0.72,1.44,2.05,1.44c1.54,0,1.95-0.82,1.95-1.74
			C545.39,16.13,545.39,15.83,545.29,15.52z M550.21,10.18c-1.03-0.82-2.97-1.95-4.21-2.46l0.72-1.13c1.33,0.62,3.39,1.74,4.31,2.46
			L550.21,10.18z"/>
	</g>
	<g class="st4">
		<path d="M564.78,5.77c-0.31,0.21-0.72,0.51-1.03,0.72c-0.92,0.72-3.39,2.87-4.72,4c0.82-0.31,1.64-0.41,2.46-0.41
			c3.08,0,5.23,1.85,5.23,4.31c0,2.97-2.46,4.82-6.26,4.82c-2.46,0-4-1.13-4-2.67c0-1.23,1.13-2.36,2.87-2.36
			c2.26,0,3.49,1.54,3.8,3.18c1.44-0.51,2.26-1.64,2.26-3.08c0-1.74-1.85-3.08-4.1-3.08c-2.98,0-4.62,1.23-6.98,3.59l-1.03-1.13
			c1.54-1.23,3.9-3.18,4.92-4.1c1.03-0.82,3.28-2.77,4.21-3.59c-0.92,0-4.51,0.21-5.54,0.31c-0.41,0-0.82,0-1.23,0.1V4.85
			c0.41,0.1,0.92,0.1,1.33,0.1c0.92,0,5.23-0.1,6.26-0.21c0.51-0.1,0.82-0.1,1.03-0.1L564.78,5.77z M561.6,17.88
			c-0.21-1.44-1.03-2.46-2.46-2.46c-0.82,0-1.44,0.51-1.44,1.13c0,0.92,1.03,1.44,2.46,1.44C560.67,17.98,561.08,17.98,561.6,17.88z
			"/>
	</g>
	<g class="st4">
		<path d="M577.6,16.95c0,1.54-1.23,2.77-2.77,2.77c-1.54,0-2.77-1.23-2.77-2.77c0-1.54,1.23-2.77,2.77-2.77
			C576.37,14.08,577.6,15.31,577.6,16.95z M576.68,16.95c0-1.03-0.82-1.85-1.85-1.85c-1.03,0-1.85,0.82-1.85,1.85
			c0,1.03,0.82,1.85,1.85,1.85C575.86,18.8,576.68,17.98,576.68,16.95z"/>
	</g>
</g>
<g>
	<path d="M136.13,81.84c0,3.66,0.06,5.75,0.38,7.58h-7.2c0.25-1.83,0.38-3.85,0.38-7.64V40.92c0-3.22-0.06-4.99-0.25-6.95
		c1.7,0.19,3.28,0.25,6.31,0.25H147c3.28,0,4.67-0.06,6.38-0.25c-0.13,1.77-0.19,3.6-0.19,5.75v9.47c0,2.78,0,3.98,0.13,5.56
		c-1.52-0.13-3.47-0.19-5.68-0.19h-11.49L136.13,81.84L136.13,81.84z M136.13,42.12h10.99V38.9h-10.99V42.12z M136.13,49.82h10.99
		v-3.28h-10.99V49.82z M146.49,68.26c0.13-2.15,0.13-2.91,0.13-5.75c-2.84,0-4.55,0.06-6.19,0.25v-5.49
		c1.7,0.19,3.35,0.25,6.25,0.25h18c3.03,0,4.67-0.06,6.44-0.25v5.49c-1.7-0.19-3.35-0.25-6.44-0.25v5.75h0.88
		c3.09,0,4.61-0.06,6.38-0.25v5.62c-1.83-0.19-3.41-0.25-6.38-0.25h-0.88v9.16c0,2.84,0.06,3.92,0.25,5.24h-6.44
		c0.25-1.52,0.32-2.59,0.32-5.3v-9.09h-6.95c-0.69,6.57-2.72,10.67-7.58,15.22c-1.52-1.7-2.78-2.78-4.93-4.23
		c4.17-3.16,5.87-6,6.63-10.99c-3.22,0-4.93,0.06-6.51,0.25v-5.62c1.7,0.19,3.28,0.25,6.38,0.25H146.49z M152.43,62.52
		c0,2.78,0,2.78-0.19,5.75h6.57v-5.75H152.43z M181.73,81.78c0,5.49-1.83,6.95-8.84,6.95c-1.01,0-1.96,0-3.98-0.13
		c-0.32-2.78-0.69-4.1-1.7-6.57c2.27,0.32,4.23,0.51,5.68,0.51c2.02,0,2.4-0.25,2.4-1.58V54.62h-12.13c-2.15,0-4.1,0.06-5.68,0.13
		c0.13-1.77,0.19-2.78,0.19-5.56v-9.47c0-2.27-0.06-3.92-0.19-5.75c1.7,0.19,3.16,0.25,6.31,0.25h11.81c3.09,0,4.67-0.06,6.38-0.25
		c-0.19,2.27-0.25,3.79-0.25,6.88L181.73,81.78L181.73,81.78z M163.79,42.12h11.49V38.9h-11.49V42.12z M163.79,49.82h11.49v-3.28
		h-11.49V49.82z"/>
	<path d="M192.22,82.29c4.1-5.87,6.13-10.67,7.33-17.18l6.38,1.52c-1.58,7.7-3.73,13.26-7.39,19.51L192.22,82.29z M217.04,38.08
		c0-2.59-0.06-3.92-0.38-5.56h7.71c-0.25,1.7-0.38,3.09-0.38,5.56v1.96h16.8c3.09,0,5.49-0.13,7.26-0.38v7.01
		c-2.21-0.19-4.48-0.32-7.26-0.32h-16.8v7.83h13.77c3.03,0,4.74-0.06,6.57-0.32v6.63c-1.96-0.25-3.66-0.32-6.63-0.32h-33.47
		c-2.97,0-4.74,0.06-6.63,0.32v-6.63c1.83,0.25,3.54,0.32,6.63,0.32h12.82v-7.83h-15.85c-3.03,0-5.24,0.13-7.2,0.32v-7.01
		c1.77,0.25,4.1,0.38,7.2,0.38h15.85L217.04,38.08L217.04,38.08z M215.46,63.09c-0.25,1.45-0.32,2.84-0.32,5.87v10.93
		c0,2.02,0.63,2.21,6.76,2.21c5.94,0,7.33-0.19,7.96-1.14c0.63-0.82,0.82-2.34,0.95-6.95c2.15,1.26,3.47,1.7,6.69,2.21
		c-0.63,11.43-1.77,12.25-16.42,12.25c-10.48,0-12.57-1.01-12.57-6.25V68.96c0-2.59-0.06-4.04-0.32-5.87H215.46z M225.75,75.4
		c-2.46-3.73-5.24-6.76-9.41-10.23l4.74-3.79c4.17,3.41,6.44,5.75,9.6,9.66L225.75,75.4z M243.25,85.13
		c-2.46-7.2-5.24-12.88-8.46-17.49l5.81-2.72c2.91,4.04,5.94,9.73,8.97,16.67L243.25,85.13z"/>
	<path d="M265.36,42.69c-2.72,0-4.61,0.13-6.5,0.32v-6.31c1.83,0.32,3.54,0.38,6.63,0.38h17.05c0-2.08-0.13-3.28-0.38-4.74h7.26
		c-0.25,1.52-0.38,2.84-0.38,4.74h18.19c3.16,0,4.74-0.06,6.63-0.38V43c-1.89-0.19-3.79-0.32-6.5-0.32h-18.31v2.84h13.83
		c2.97,0,4.17-0.06,5.87-0.19c-0.19,1.77-0.25,2.84-0.25,4.99v12.13c0,2.08,0.06,3.09,0.25,4.86c-1.83-0.13-2.97-0.19-6.19-0.19
		v2.91h4.74c3.16,0,4.74-0.06,6.63-0.38v6.31c-2.02-0.19-4.23-0.32-6.51-0.32h-4.86v8.08c0,2.27-0.51,3.47-1.96,4.36
		c-1.39,0.88-3.54,1.2-8.02,1.2c-0.88,0-2.21-0.06-4.29-0.13c-0.51-2.91-0.95-4.42-1.89-6.31c2.78,0.38,4.8,0.51,7.01,0.51
		c2.27,0,2.65-0.19,2.65-1.39v-6.31h-30.69c-2.21,0-4.48,0.13-6.5,0.32v-6.32c1.83,0.25,3.54,0.38,6.63,0.38h30.57v-2.91h-26.21
		c-2.84,0-4.1,0.06-5.87,0.19c0.19-1.83,0.25-2.91,0.25-4.86V50.33c0-2.02-0.06-3.16-0.25-4.99c1.7,0.13,2.84,0.19,5.87,0.19h12.69
		v-2.84H265.36z M278.56,88.16c-3.47-4.17-4.99-5.62-8.65-8.21l4.93-3.98c4.04,2.65,6.31,4.67,8.9,7.7L278.56,88.16z M270.66,50.71
		v3.22h11.87v-3.22H270.66z M270.66,58.6v3.41h11.87V58.6C282.54,58.6,270.66,58.6,270.66,58.6z M289.04,53.93h12.95v-3.22h-12.95
		V53.93z M289.04,62.01h12.95V58.6h-12.95V62.01z"/>
	<path d="M332.56,81.72c0,3.73,0.13,5.87,0.38,7.64h-7.33c0.25-1.96,0.38-4.17,0.38-7.64V41.11c0-3.28-0.06-4.99-0.25-6.95
		c1.83,0.19,3.22,0.25,6.31,0.25h10.99c3.22,0,4.61-0.06,6.31-0.25c-0.13,1.7-0.19,3.35-0.19,5.75v12.06c0,2.91,0,4.17,0.13,5.56
		c-1.45-0.06-3.47-0.13-5.62-0.13h-11.12L332.56,81.72L332.56,81.72z M332.56,43.7h10.55v-3.92h-10.55L332.56,43.7L332.56,43.7z
		 M332.56,52.41h10.55V48.5h-10.55L332.56,52.41L332.56,52.41z M377.4,81.59c0,5.94-1.7,7.07-10.55,7.07
		c-1.14,0-2.59-0.06-5.12-0.13c-0.44-2.97-0.88-4.74-1.7-6.76c3.1,0.38,5.62,0.57,8.46,0.57c1.89,0,2.34-0.25,2.34-1.52V57.4h-11.68
		c-2.27,0-4.42,0.06-5.75,0.13c0.13-1.39,0.19-2.91,0.19-5.56V39.91c0-2.15-0.06-3.85-0.19-5.75c1.83,0.19,3.09,0.25,6.31,0.25
		h11.62c3.09,0,4.48-0.06,6.31-0.25c-0.19,2.15-0.25,3.85-0.25,6.88L377.4,81.59L377.4,81.59z M359.78,43.7h11.05v-3.92h-11.05V43.7
		z M359.78,52.41h11.05V48.5h-11.05V52.41z"/>
	<path d="M427.55,43.32c-1.39-0.06-1.39-0.06-1.96-0.06c-0.44,2.59-0.95,4.67-1.52,6.69H429c-0.13-4.29-0.13-4.29-0.19-12.57
		c0-2.53,0-3.03-0.19-4.48h6.5c-0.32,2.15-0.38,3.16-0.38,7.83c0,2.21,0.06,7.39,0.13,9.22h3.6c3.73,0,4.99-0.06,6.95-0.38v6.51
		c-2.27-0.25-3.28-0.32-6.95-0.32h-3.35c0.25,4.86,0.63,8.15,1.14,11.37c1.64-3.22,3.1-6.88,3.47-8.9l5.05,3.22
		c-0.38,0.76-0.88,1.83-1.39,2.97c-1.39,3.28-3.47,7.39-5.31,10.23c0.88,2.53,1.39,3.79,2.15,5.12c0.57,0.95,0.82,1.26,0.95,1.26
		c0.44,0,0.82-2.91,1.01-7.77c1.64,1.39,3.35,2.53,4.93,3.28c-0.51,4.8-0.95,7.2-1.83,9.03c-0.82,1.89-2.21,2.91-3.79,2.91
		c-2.65,0-5.56-3.03-7.77-8.02c-3.09,3.66-5.68,6-9.91,9.16c-1.58-2.46-2.21-3.22-3.92-4.8c2.21-1.45,2.97-1.96,4.23-2.97h-9.54
		v4.04h-5.56c0.19-1.77,0.25-3.35,0.25-5.43v-16.8c0-2.72,0-3.47-0.19-5.49c1.07,0.13,1.77,0.19,3.98,0.19h9.79
		c1.77,0,2.59-0.06,4.04-0.19c-0.19,1.45-0.19,2.34-0.19,5.56v13.26c0,2.08,0,2.08,0,2.65c1.77-1.64,3.22-3.28,4.93-5.43
		c-1.33-5.11-1.89-9.47-2.46-18.44H406.2v27.41c0,3.22,0.06,4.8,0.32,6.57h-6.25c0.25-1.83,0.32-3.73,0.32-6.63v-4.67
		c-2.65,0.88-5.62,1.83-7.83,2.4c-2.91,0.76-3.09,0.82-4.17,1.26l-1.39-6.63c0.69,0,1.58-0.19,3.41-0.51V40.48
		c-1.33,0.06-1.89,0.13-2.78,0.25v-6.57c1.33,0.19,2.78,0.32,5.24,0.32h9.79c2.59,0,3.92-0.06,5.31-0.32v3.79
		c1.26,0.19,2.27,0.25,3.92,0.25h2.91v-0.38c0-2.53-0.06-3.6-0.38-5.05h6.69c-0.25,1.45-0.32,2.59-0.32,5.05v0.38h2.21
		c2.21,0,3.16-0.06,4.36-0.19L427.55,43.32L427.55,43.32z M396.29,47.68h4.29v-7.2h-4.29V47.68z M396.29,59.87h4.29v-6.69h-4.29
		V59.87z M396.29,73.7c2.08-0.57,2.59-0.69,4.29-1.2v-7.14h-4.29V73.7z M411.51,49.89c-0.25-1.83-0.69-4.1-1.33-6.69
		c-0.95,0.06-1.2,0.06-2.15,0.19V40.6c-0.88-0.06-1.07-0.06-1.83-0.13v9.41L411.51,49.89L411.51,49.89z M414.6,67.57h6.95v-4.1
		h-6.95V67.57z M414.6,76.73h6.95v-4.36h-6.95V76.73z M415.42,43.19c0.38,1.77,0.76,4.1,1.07,6.76h2.59
		c0.57-1.96,1.01-4.23,1.39-6.76H415.42z M440.43,35.3c2.27,3.41,3.28,5.37,4.93,9.41l-4.86,2.84c-1.39-4.48-2.34-6.44-4.55-9.85
		L440.43,35.3z"/>
	<path d="M485.72,54.18c1.58,5.56,4.8,11.56,8.9,16.17c4.55,5.24,9.73,8.78,17.11,11.81c-2.08,2.46-2.97,3.79-4.55,7.14
		c-6.63-3.41-10.92-6.63-15.28-11.3c-4.04-4.36-7.07-9.28-9.35-15.03c-1.89,6.38-5.12,11.75-10.1,16.61
		c-4.23,4.1-8.65,7.07-14.78,9.73c-1.07-2.34-2.4-4.29-4.36-6.51c4.42-1.77,6.88-3.09,10.04-5.3c8.27-5.81,12.44-12.76,13.89-23.3
		h-14.52c-3.92,0-5.75,0.06-7.83,0.38v-7.77c1.96,0.25,4.17,0.38,7.83,0.38h15.22c0.13-3.09,0.13-4.1,0.13-7.39
		c0-2.59-0.13-4.48-0.44-6.19h8.21c-0.32,2.21-0.38,3.09-0.44,7.33c0,2.53-0.06,3.98-0.13,6.25h16.42c3.47,0,5.68-0.13,7.77-0.38
		v7.77c-2.4-0.25-4.36-0.38-7.7-0.38H485.72z"/>
	<path d="M527.53,72.62c-3.22,0-5.62,0.13-7.52,0.38v-6.82c2.08,0.25,4.55,0.38,7.45,0.38h16.86v-0.44c0-1.2-0.06-2.34-0.19-3.35
		h2.65c2.65-1.39,4.74-2.78,7.33-5.05h-17.05c-2.53,0-4.23,0.06-6.19,0.25v-6.13c1.83,0.19,3.6,0.25,6.25,0.25h20.46
		c2.46,0,3.6-0.06,4.74-0.25l3.41,3.79c-1.01,0.82-1.01,0.82-2.21,1.83c-4.36,3.73-7.52,6.06-12.38,9.03v0.06h16.1
		c3.09,0,5.81-0.13,7.64-0.38V73c-1.77-0.25-4.42-0.38-7.7-0.38h-16.04v10.8c0,2.15-0.19,3.03-0.76,3.92
		c-1.07,1.52-3.22,2.02-8.78,2.02c-0.82,0-2.84-0.06-6.13-0.19c-0.63-3.28-0.95-4.36-2.02-6.57c3.03,0.38,5.75,0.57,7.71,0.57
		c2.72,0,3.16-0.19,3.16-1.39v-9.16L527.53,72.62L527.53,72.62z M530.75,42.06c-1.39-2.72-2.27-3.98-4.61-7.01l6.19-1.83
		c2.15,2.65,3.6,4.86,5.62,8.84h6.5c-0.95-2.91-1.96-5.05-3.66-7.77l6.38-1.83c2.53,4.8,2.91,5.62,4.29,9.6h5.24
		c1.83-2.46,3.98-6.38,5.05-9.28l6.69,1.89c-1.45,2.65-3.22,5.49-4.67,7.39h2.78c4.23,0,5.37-0.06,7.64-0.25
		c-0.19,1.52-0.25,2.84-0.25,5.12v5.75c0,1.7,0.13,3.22,0.32,4.74h-6.76v-9.6h-40.29v9.6h-6.76c0.25-1.45,0.32-2.84,0.32-4.74v-5.75
		c0-2.21-0.06-3.47-0.25-5.12c2.84,0.25,3.16,0.25,7.33,0.25C527.85,42.06,530.75,42.06,530.75,42.06z"/>
</g>
<path class="st5" d="M6.01,63.09c8.65-21.42,19.52-34.18,26.37-34.36c8.18-0.22,12.91,4.85,16.63,13.81s5.85,16.94,7.52,21.02
	c1.67,4.08,10.42,14.31,15.34,16.17s7.78,2,12.09-1.13c4.31-3.13,7.94-12.46,10.88-22.7c2.94-10.24,4.24-21.56,0.93-23.33
	c-3.31-1.78-9.26,0.67-16.53,5.26c-7.16,4.52-19.2,16.33-34.12,33.48c0,0,19.24-26.65,33.92-37.3c15.75-11.43,26.21-6.59,29.02-4.37
	c2.81,2.22,7.24,7.06,4.59,19.87c-2.65,12.81-12.1,36.85-20.98,46.31c-3.8,4.05-9.22,7.16-16,6.19
	c-6.78-0.97-13.05-14.26-15.44-21.24c-2.39-6.98-1.85-8.75-4.45-13.98c-2.61-5.23-11.75-14.09-17.14-16.11s-9.01-0.6-11.32,3.2
	c-2.31,3.8-9.28,15.31-11.41,28.19c-2.13,12.87,0.16,15.24,6.63,14.36c11.63-1.57,35.69-26.95,47.2-40.52
	c0,0-14.2,21.15-28.04,33.47S18.14,105.46,7.44,100.2C-6.1,93.54,6.01,63.09,6.01,63.09z"/>
<g>
	<path class="st3" d="M24.95,104.96l-3.2,11.72h-2.48l3.2-11.72H24.95z M32.34,104.96l-5.64,5.65l2.85,6.07h-3.28l-2.71-5.98
		l5.68-5.74H32.34z"/>
	<path class="st3" d="M37.74,104.96h3.51l0.68,11.72H39.2l-0.15-2.73h-4.21l-1.57,2.73h-2.71L37.74,104.96z M39.11,111.7l-0.25-4.78
		l-2.76,4.78H39.11z"/>
	<path class="st3" d="M49.71,104.96l-3.2,11.72h-2.58l3.2-11.72H49.71z"/>
	<path class="st3" d="M61.66,107.2h-6.3c-0.89,0.01-1.08,0.14-1.28,0.83l-0.2,0.74c-0.13,0.54,0.01,0.63,1.1,0.64h3.64
		c1.4,0.01,1.64,0.04,2.04,0.31c0.51,0.39,0.6,0.84,0.34,1.83l-0.69,2.54c-0.29,1.03-0.95,1.87-1.71,2.2
		c-0.66,0.29-1.31,0.37-2.88,0.39h-6.57l0.62-2.26h6.02c1.56-0.01,1.75-0.09,1.93-0.7l0.31-1.14c0.19-0.74-0.07-0.88-1.62-0.9H53
		c-1.75-0.01-2.37-0.63-2-2.03l0.57-2.07c0.55-1.84,1.48-2.58,3.3-2.63h7.41L61.66,107.2z"/>
	<path class="st3" d="M67.26,104.96l-1.22,4.48h5l1.22-4.48h2.54l-3.2,11.72h-2.54l1.36-4.98h-5l-1.36,4.98h-2.53l3.2-11.72H67.26z"
		/>
	<path class="st3" d="M80.09,104.96l-3.2,11.72h-2.58l3.2-11.72H80.09z"/>
</g>
<g>
	<path d="M128.64,116.33v-15.46h2.78v15.46C131.42,116.33,128.64,116.33,128.64,116.33z M137.67,116.33l-5.96-8.12l5.96-7.34h3.41
		l-6.09,7.16l6.25,8.31C141.24,116.33,137.67,116.33,137.67,116.33z"/>
	<path d="M143.7,116.33l5.8-15.46h2.86l5.8,15.46h-3l-1.29-3.68h-6.07l-1.27,3.68H143.7z M148.59,110.3h4.44l-2.24-6.31
		L148.59,110.3z"/>
	<path d="M163.3,116.33v-15.46h2.8v15.46C166.1,116.33,163.3,116.33,163.3,116.33z"/>
	<path d="M172.52,113.37c1.05,0.43,2.49,0.76,3.93,0.76c1.85,0,2.61-0.76,2.61-1.77c0-1.07-0.33-1.6-2.28-2.53l-1.05-0.49
		c-2.43-1.11-3.15-2.39-3.15-4.22c0-2.55,1.91-4.48,5.37-4.48c1.01,0,2.3,0.16,3.43,0.49v2.63c-1.4-0.47-2.24-0.66-3.43-0.66
		c-1.65,0-2.57,0.6-2.57,1.67c0,0.88,0.31,1.4,1.89,2.16l1.11,0.51c2.49,1.17,3.62,2.3,3.62,4.32c0,2.96-2.02,4.83-5.72,4.83
		c-1.46,0-2.78-0.27-3.76-0.62V113.37z"/>
	<path d="M187.87,116.33v-15.46h2.77v6.09h7.44v-6.09h2.78v15.46h-2.78v-6.85h-7.44v6.85C190.64,116.33,187.87,116.33,187.87,116.33
		z"/>
	<path d="M208.15,116.33v-15.46h2.8v15.46C210.95,116.33,208.15,116.33,208.15,116.33z"/>
	<path d="M225.76,116.33v-15.46h5.12c2.98,0,5.04,1.69,5.04,4.67c0,3.15-2.02,5.39-5.37,5.39h-2.08v5.41
		C228.47,116.33,225.76,116.33,225.76,116.33z M228.47,103.19v5.41h1.65c1.77,0,2.84-0.93,2.84-2.8c0-1.62-0.93-2.61-2.72-2.61
		H228.47z"/>
	<path d="M241.46,116.33v-15.46h5.35c2.98,0,4.79,1.42,4.79,4.11c0,2.34-1.27,3.74-3.02,4.38l4.69,6.97h-3.33l-3.89-5.98h-1.89v5.98
		H241.46z M244.15,103.23v4.85h1.5c1.79,0,3.04-0.82,3.04-2.57c0-1.54-1.01-2.28-2.61-2.28H244.15z"/>
	<path d="M256.82,108.78c0-5.1,2.92-8.1,7.24-8.1c4.36,0,7.22,2.41,7.22,7.87c0,5.1-2.86,8.12-7.22,8.12
		C259.74,116.68,256.82,114.25,256.82,108.78z M268.34,108.58c0-4.3-2.1-5.41-4.28-5.41c-2.16,0-4.28,1.29-4.28,5.59
		c0,4.28,2.12,5.39,4.28,5.39C266.24,114.15,268.34,112.86,268.34,108.58z"/>
	<path d="M277.48,116.33v-15.46h9.25v2.36h-6.52v4.54h5.59v2.34h-5.59v6.21C280.21,116.33,277.48,116.33,277.48,116.33z"/>
	<path d="M292.14,116.33v-15.46h9.29v2.36h-6.56v3.86h5.66v2.32h-5.66v4.44h6.72v2.47H292.14z"/>
	<path d="M306.87,113.37c1.05,0.43,2.49,0.76,3.93,0.76c1.85,0,2.61-0.76,2.61-1.77c0-1.07-0.33-1.6-2.28-2.53l-1.05-0.49
		c-2.43-1.11-3.15-2.39-3.15-4.22c0-2.55,1.91-4.48,5.37-4.48c1.01,0,2.3,0.16,3.43,0.49v2.63c-1.4-0.47-2.24-0.66-3.43-0.66
		c-1.64,0-2.57,0.6-2.57,1.67c0,0.88,0.31,1.4,1.89,2.16l1.11,0.51c2.49,1.17,3.62,2.3,3.62,4.32c0,2.96-2.01,4.83-5.72,4.83
		c-1.46,0-2.78-0.27-3.76-0.62L306.87,113.37L306.87,113.37z"/>
	<path d="M321.36,113.37c1.05,0.43,2.49,0.76,3.93,0.76c1.85,0,2.61-0.76,2.61-1.77c0-1.07-0.33-1.6-2.28-2.53l-1.05-0.49
		c-2.43-1.11-3.15-2.39-3.15-4.22c0-2.55,1.91-4.48,5.37-4.48c1.01,0,2.3,0.16,3.43,0.49v2.63c-1.4-0.47-2.24-0.66-3.43-0.66
		c-1.64,0-2.57,0.6-2.57,1.67c0,0.88,0.31,1.4,1.89,2.16l1.11,0.51c2.49,1.17,3.62,2.3,3.62,4.32c0,2.96-2.01,4.83-5.72,4.83
		c-1.46,0-2.78-0.27-3.76-0.62L321.36,113.37L321.36,113.37z"/>
	<path d="M336.87,116.33v-15.46h2.8v15.46C339.66,116.33,336.87,116.33,336.87,116.33z"/>
	<path d="M345.92,108.78c0-5.1,2.92-8.1,7.24-8.1c4.36,0,7.22,2.41,7.22,7.87c0,5.1-2.86,8.12-7.22,8.12
		C348.84,116.68,345.92,114.25,345.92,108.78z M357.43,108.58c0-4.3-2.1-5.41-4.28-5.41c-2.16,0-4.28,1.29-4.28,5.59
		c0,4.28,2.12,5.39,4.28,5.39C355.34,114.15,357.43,112.86,357.43,108.58z"/>
	<path d="M366.16,116.33v-15.46h3.15l7.03,10.32v-10.32h2.65v15.46h-2.36l-7.81-11.43v11.43
		C368.81,116.33,366.16,116.33,366.16,116.33z"/>
	<path d="M383.65,116.33l5.8-15.46h2.86l5.8,15.46h-3l-1.3-3.68h-6.07l-1.27,3.68H383.65z M388.54,110.3h4.44l-2.24-6.31
		L388.54,110.3z"/>
	<path d="M403.19,116.33v-15.46h2.77v12.95h6.99v2.51H403.19z"/>
	<path d="M435.26,100.87h2.76v9.68c0,4.03-2.98,6.07-6.42,6.07c-3.72,0-6.21-2.06-6.21-6.07v-9.68h2.76v9.05
		c0,2.63,1.01,4.28,3.66,4.28c2.26,0,3.45-1.36,3.45-4.28L435.26,100.87L435.26,100.87z"/>
	<path d="M444.4,116.33v-15.46h3.15l7.03,10.32v-10.32h2.65v15.46h-2.36l-7.81-11.43v11.43C447.05,116.33,444.4,116.33,444.4,116.33
		z"/>
	<path d="M464.19,116.33v-15.46h2.8v15.46C466.98,116.33,464.19,116.33,464.19,116.33z"/>
	<path d="M477.66,116.33l-5.12-15.46h2.94l3.87,12.21l3.99-12.21h2.84l-5.22,15.46H477.66z"/>
	<path d="M491.47,116.33v-15.46h9.29v2.36h-6.56v3.86h5.66v2.32h-5.66v4.44h6.72v2.47H491.47z"/>
	<path d="M507.16,116.33v-15.46h5.35c2.98,0,4.79,1.42,4.79,4.11c0,2.34-1.28,3.74-3.02,4.38l4.69,6.97h-3.33l-3.89-5.98h-1.89v5.98
		H507.16z M509.85,103.23v4.85h1.5c1.79,0,3.04-0.82,3.04-2.57c0-1.54-1.01-2.28-2.61-2.28H509.85z"/>
	<path d="M522.69,113.37c1.05,0.43,2.49,0.76,3.93,0.76c1.85,0,2.61-0.76,2.61-1.77c0-1.07-0.33-1.6-2.28-2.53l-1.05-0.49
		c-2.43-1.11-3.15-2.39-3.15-4.22c0-2.55,1.91-4.48,5.37-4.48c1.01,0,2.3,0.16,3.43,0.49v2.63c-1.4-0.47-2.24-0.66-3.43-0.66
		c-1.64,0-2.57,0.6-2.57,1.67c0,0.88,0.31,1.4,1.89,2.16l1.11,0.51c2.49,1.17,3.62,2.3,3.62,4.32c0,2.96-2.01,4.83-5.72,4.83
		c-1.46,0-2.78-0.27-3.76-0.62L522.69,113.37L522.69,113.37z"/>
	<path d="M538.2,116.33v-15.46h2.8v15.46C541,116.33,538.2,116.33,538.2,116.33z"/>
	<path d="M551.37,116.33v-13.1h-4.89v-2.36h12.63v2.36h-4.94v13.1C554.16,116.33,551.37,116.33,551.37,116.33z"/>
	<path d="M567.08,116.33v-6l-5.02-9.46h3.04l3.46,6.95l3.45-6.95h2.88l-5.04,9.44v6.03C569.86,116.33,567.08,116.33,567.08,116.33z"
		/>
</g>
</svg>
